<svg
  width="7"
  height="7"
  viewBox="0 0 7 7"
  fill="none"
  xmlns="http://www.w3.org/2000/svg"
>
  <path
    d="M3.2823 0.982605C3.39568 0.662563 3.84896 0.664472 3.95965 0.985459L4.53009 2.63973C4.56419 2.73863 4.63976 2.81771 4.737 2.85628L6.35071 3.49625C6.65409 3.61657 6.65228 4.04661 6.34789 4.16436L4.72885 4.79071C4.63128 4.82845 4.55505 4.9069 4.52012 5.0055L3.93575 6.65491C3.82237 6.97495 3.36909 6.97304 3.2584 6.65205L2.68796 4.99778C2.65386 4.89889 2.57829 4.8198 2.48105 4.78123L0.867345 4.14126C0.563959 4.02094 0.565771 3.59091 0.87016 3.47315L2.4892 2.84681C2.58677 2.80906 2.663 2.73061 2.69793 2.63201L3.2823 0.982605Z"
    fill="white"
  />
</svg>