<svg width="17" height="15" viewBox="0 0 17 15" fill="none" xmlns="http://www.w3.org/2000/svg">
    <path fill-rule="evenodd" clip-rule="evenodd" d="M1.41782 6.62635C5.79482 4.71934 8.71355 3.46211 10.1739 2.85473C14.3436 1.12044 15.21 0.819157 15.7747 0.809186C15.8989 0.807016 16.1766 0.837808 16.3565 0.983788C16.6233 1.20032 16.6249 1.67035 16.5953 1.98143C16.3693 4.35559 15.3916 10.117 14.8942 12.7761C14.6837 13.9012 14.2692 14.2785 13.8681 14.3154C12.9962 14.3956 12.3341 13.7392 11.4896 13.1856C10.1681 12.3194 9.42157 11.7801 8.13884 10.9349C6.65645 9.95798 7.61744 9.42109 8.46223 8.54363C8.68334 8.31401 12.525 4.81969 12.5994 4.50268C12.6087 4.46304 12.6173 4.31524 12.5295 4.23723C12.4417 4.15923 12.3121 4.18586 12.2187 4.20709C12.0861 4.23717 9.97506 5.63252 5.8855 8.39307C5.28627 8.80456 4.74352 9.00503 4.25725 8.99453C3.72113 8.98297 2.68994 8.69142 1.92333 8.44222C0.983047 8.13659 0.235727 7.97495 0.300828 7.4559C0.334728 7.18546 0.707039 6.90898 1.41782 6.62635Z" fill="white"/>
    </svg>
    